# 3ds Max Wavefront OBJ Exporter v0.97b - (c)2007 guruware
# File Created: 24.04.2016 00:17:20

#
# object wall
#

v  -69.906952 -9.881989 -9.567232
v  -69.906952 94.465057 -5.225970
v  -69.906952 22.937597 -9.567232
v  -69.906952 67.523048 -5.941792
v  -63.525909 31.052160 -8.907401
v  -63.525909 59.408485 -6.601623
v  -60.596638 33.081173 -6.727079
v  -60.596638 56.814003 -4.527697
v  -69.906952 -9.881990 -11.683394
v  -69.906952 22.937597 -11.683394
v  -69.906952 90.339333 -7.557431
v  -69.906952 71.437431 -7.557431
v  -0.043243 94.397224 -5.225970
v  -0.043243 59.408485 -6.601623
v  -0.043243 56.814003 -4.527697
v  -0.043243 33.081173 -6.727079
v  -0.043243 90.339333 -7.557431
v  -0.043243 22.937597 -9.567232
v  -69.906952 22.937597 0.091904
v  -69.906952 94.465057 0.091904
v  69.820465 -9.881989 -9.567232
v  69.820465 -9.881990 0.091904
v  69.820465 22.937597 0.091904
v  69.820465 22.937597 -9.567232
v  60.510151 33.081173 -6.727079
v  60.510151 56.814003 -4.527697
v  69.820465 71.437431 -7.557431
v  69.820465 90.339333 -7.557431
v  -0.043243 71.437431 -7.557431
v  69.820465 67.523048 -5.941792
v  63.439423 59.408485 -6.601623
v  63.439423 31.052160 -8.907401
v  -0.043243 67.523048 -5.941792
v  69.820465 22.937597 -11.683394
v  69.820465 -9.881990 -11.683394
v  -0.043243 22.937597 -11.683394
v  69.820465 94.465057 -5.225970
v  -0.043243 -9.881990 -11.683394
v  -0.043243 31.052160 -8.907401
v  69.820465 94.465057 0.091904
v  -69.906952 -9.881989 9.751040
v  -69.906952 -9.881990 0.091904
v  -69.906952 22.937597 9.751040
v  -60.596638 33.081173 6.910887
v  -60.596638 56.814003 4.711504
v  -0.043243 56.814003 4.711504
v  -0.043243 33.081173 6.910887
v  -69.906952 71.437431 7.741239
v  -69.906952 90.339333 7.741239
v  -0.043243 90.339333 7.741239
v  -0.043243 71.437431 7.741239
v  -69.906952 67.523048 6.125599
v  -63.525909 59.408485 6.785430
v  -63.525909 31.052160 9.091208
v  -0.043243 67.523048 6.125599
v  -0.043243 59.408485 6.785430
v  -69.906952 22.937597 11.867202
v  -69.906952 -9.881990 11.867202
v  -0.043243 22.937597 9.751040
v  -0.043243 22.937597 11.867202
v  -69.906952 94.465057 5.409777
v  -0.043243 94.397224 5.409777
v  -0.043243 -9.881990 11.867202
v  -0.043243 31.052160 9.091208
v  -0.043243 94.397224 0.091904
v  -69.906952 67.523048 0.091904
v  69.820465 -9.881989 9.751040
v  69.820465 22.937597 9.751040
v  60.510151 33.081173 6.910887
v  60.510151 56.814003 4.711504
v  69.820465 71.437431 7.741239
v  69.820465 90.339333 7.741239
v  63.439423 31.052160 9.091208
v  63.439423 59.408485 6.785430
v  69.820465 67.523048 6.125599
v  69.820465 -9.881990 11.867202
v  69.820465 22.937597 11.867202
v  69.820465 94.465057 5.409777
v  69.820465 67.523048 0.091904
# 79 vertices

vn -1.000000 0.000000 -0.000000
vn -1.000000 0.000000 -0.000000
vn -1.000000 0.000000 -0.000000
vn -1.000000 0.000000 -0.000000
vn 0.000000 0.117661 -0.993054
vn 0.000000 0.117661 -0.993054
vn 0.000000 0.117661 -0.993054
vn 0.000000 0.117661 -0.993054
vn 0.000000 0.000000 -1.000000
vn 0.000000 0.000000 -1.000000
vn 0.000000 0.000000 -1.000000
vn 0.000000 0.000000 -1.000000
vn 0.000000 0.103405 -0.994639
vn 0.000000 0.103405 -0.994639
vn 0.000000 0.103405 -0.994639
vn 0.000000 0.103405 -0.994639
vn 0.000000 0.103405 -0.994639
vn 0.000000 0.103405 -0.994639
vn 0.000000 0.103405 -0.994639
vn 0.000000 0.103405 -0.994639
vn 0.589643 0.088769 -0.802771
vn 0.589643 0.088769 -0.802771
vn 0.589643 0.088769 -0.802771
vn 0.589643 0.088769 -0.802771
vn 0.000000 -0.714758 -0.699372
vn 0.000000 -0.714758 -0.699372
vn 0.000000 -0.714758 -0.699372
vn 0.000000 -0.714758 -0.699372
vn -1.000000 0.000000 -0.000000
vn -1.000000 0.000000 -0.000000
vn -1.000000 0.000000 -0.000000
vn -1.000000 0.000000 -0.000000
vn 0.000000 1.000000 -0.000000
vn 0.000000 1.000000 -0.000000
vn 0.000000 1.000000 -0.000000
vn 0.000000 1.000000 -0.000000
vn 0.000224 0.588812 -0.808270
vn 0.000224 0.588812 -0.808270
vn 0.000224 0.588812 -0.808270
vn 0.000224 0.588812 -0.808270
vn -1.000000 0.000000 -0.000000
vn -1.000000 0.000000 -0.000000
vn -1.000000 0.000000 -0.000000
vn -1.000000 0.000000 -0.000000
vn 0.000000 0.000000 -1.000000
vn 0.000000 0.000000 -1.000000
vn 0.000000 0.000000 -1.000000
vn 0.000000 0.000000 -1.000000
vn 0.000000 0.103405 -0.994639
vn 0.000000 0.103405 -0.994639
vn 0.000000 0.103405 -0.994639
vn 0.000000 0.103405 -0.994639
vn 0.000000 0.808505 -0.588490
vn 0.000000 0.808505 -0.588490
vn 0.000000 0.808505 -0.588490
vn 0.000000 0.808505 -0.588490
vn 0.000000 -0.466706 -0.884412
vn 0.000000 -0.466706 -0.884412
vn 0.000000 -0.466706 -0.884412
vn 0.000000 -0.466706 -0.884412
vn 0.000759 1.000000 -0.000000
vn 0.000759 1.000000 -0.000000
vn 0.000759 1.000000 -0.000000
vn 0.000759 1.000000 -0.000000
vn -1.000000 0.000000 -0.000000
vn -1.000000 0.000000 -0.000000
vn -1.000000 0.000000 -0.000000
vn -1.000000 0.000000 -0.000000
vn -1.000000 0.000000 -0.000000
vn -1.000000 0.000000 -0.000000
vn -1.000000 0.000000 -0.000000
vn -1.000000 0.000000 -0.000000
vn 1.000000 0.000000 -0.000000
vn 1.000000 0.000000 -0.000000
vn 1.000000 0.000000 -0.000000
vn 1.000000 0.000000 -0.000000
vn 0.000000 0.117661 -0.993054
vn 0.000000 0.117661 -0.993054
vn 0.000000 0.117661 -0.993054
vn 0.000000 0.117661 -0.993054
vn 0.000000 0.000000 -1.000000
vn 0.000000 0.000000 -1.000000
vn 0.000000 0.000000 -1.000000
vn 0.000000 0.000000 -1.000000
vn -0.000000 0.103405 -0.994639
vn -0.000000 0.103405 -0.994639
vn -0.000000 0.103405 -0.994639
vn -0.000000 0.103405 -0.994639
vn 0.000000 0.103405 -0.994639
vn 0.000000 0.103405 -0.994639
vn 0.000000 0.103405 -0.994639
vn 0.000000 0.103405 -0.994639
vn -0.589643 0.088769 -0.802771
vn -0.589643 0.088769 -0.802771
vn -0.589643 0.088769 -0.802771
vn -0.589643 0.088769 -0.802771
vn 0.000000 -0.714758 -0.699372
vn 0.000000 -0.714758 -0.699372
vn 0.000000 -0.714758 -0.699372
vn 0.000000 -0.714758 -0.699372
vn 1.000000 0.000000 -0.000000
vn 1.000000 0.000000 -0.000000
vn 1.000000 0.000000 -0.000000
vn 1.000000 0.000000 -0.000000
vn 0.000000 1.000000 -0.000000
vn 0.000000 1.000000 -0.000000
vn 0.000000 1.000000 -0.000000
vn 0.000000 1.000000 -0.000000
vn -0.000224 0.588812 -0.808270
vn -0.000224 0.588812 -0.808270
vn -0.000224 0.588812 -0.808270
vn -0.000224 0.588812 -0.808270
vn 1.000000 0.000000 -0.000000
vn 1.000000 0.000000 -0.000000
vn 1.000000 0.000000 -0.000000
vn 1.000000 0.000000 -0.000000
vn 0.000000 0.000000 -1.000000
vn 0.000000 0.000000 -1.000000
vn 0.000000 0.000000 -1.000000
vn 0.000000 0.000000 -1.000000
vn 0.000000 0.103405 -0.994639
vn 0.000000 0.103405 -0.994639
vn 0.000000 0.103405 -0.994639
vn 0.000000 0.103405 -0.994639
vn 0.000000 0.808505 -0.588490
vn 0.000000 0.808505 -0.588490
vn 0.000000 0.808505 -0.588490
vn 0.000000 0.808505 -0.588490
vn 0.000000 -0.466706 -0.884412
vn 0.000000 -0.466706 -0.884412
vn 0.000000 -0.466706 -0.884412
vn 0.000000 -0.466706 -0.884412
vn -0.000759 1.000000 -0.000000
vn -0.000759 1.000000 -0.000000
vn -0.000759 1.000000 -0.000000
vn -0.000759 1.000000 -0.000000
vn 1.000000 0.000000 -0.000000
vn 1.000000 0.000000 -0.000000
vn 1.000000 0.000000 -0.000000
vn 1.000000 0.000000 -0.000000
vn 1.000000 0.000000 -0.000000
vn 1.000000 0.000000 -0.000000
vn 1.000000 0.000000 -0.000000
vn 1.000000 0.000000 -0.000000
vn -1.000000 0.000000 -0.000000
vn -1.000000 0.000000 -0.000000
vn -1.000000 0.000000 -0.000000
vn -1.000000 0.000000 -0.000000
vn 0.000000 0.117661 0.993054
vn 0.000000 0.117661 0.993054
vn 0.000000 0.117661 0.993054
vn 0.000000 0.117661 0.993054
vn 0.000000 0.000000 1.000000
vn 0.000000 0.000000 1.000000
vn 0.000000 0.000000 1.000000
vn 0.000000 0.000000 1.000000
vn 0.000000 0.103405 0.994639
vn 0.000000 0.103405 0.994639
vn 0.000000 0.103405 0.994639
vn 0.000000 0.103405 0.994639
vn 0.000000 0.103405 0.994639
vn 0.000000 0.103405 0.994639
vn 0.000000 0.103405 0.994639
vn 0.000000 0.103405 0.994639
vn 0.589643 0.088769 0.802771
vn 0.589643 0.088769 0.802771
vn 0.589643 0.088769 0.802771
vn 0.589643 0.088769 0.802771
vn 0.000000 -0.714758 0.699372
vn 0.000000 -0.714758 0.699372
vn 0.000000 -0.714758 0.699372
vn 0.000000 -0.714758 0.699372
vn -1.000000 0.000000 -0.000000
vn -1.000000 0.000000 -0.000000
vn -1.000000 0.000000 -0.000000
vn -1.000000 0.000000 -0.000000
vn 0.000000 1.000000 -0.000000
vn 0.000000 1.000000 -0.000000
vn 0.000000 1.000000 -0.000000
vn 0.000000 1.000000 -0.000000
vn 0.000224 0.588812 0.808270
vn 0.000224 0.588812 0.808270
vn 0.000224 0.588812 0.808270
vn 0.000224 0.588812 0.808270
vn -1.000000 0.000000 -0.000000
vn -1.000000 0.000000 -0.000000
vn -1.000000 0.000000 -0.000000
vn -1.000000 0.000000 -0.000000
vn 0.000000 0.000000 1.000000
vn 0.000000 0.000000 1.000000
vn 0.000000 0.000000 1.000000
vn 0.000000 0.000000 1.000000
vn 0.000000 0.103405 0.994639
vn 0.000000 0.103405 0.994639
vn 0.000000 0.103405 0.994639
vn 0.000000 0.103405 0.994639
vn 0.000000 0.808505 0.588490
vn 0.000000 0.808505 0.588490
vn 0.000000 0.808505 0.588490
vn 0.000000 0.808505 0.588490
vn 0.000000 -0.466706 0.884412
vn 0.000000 -0.466706 0.884412
vn 0.000000 -0.466706 0.884412
vn 0.000000 -0.466706 0.884412
vn 0.000759 1.000000 -0.000000
vn 0.000759 1.000000 -0.000000
vn 0.000759 1.000000 -0.000000
vn 0.000759 1.000000 -0.000000
vn -1.000000 0.000000 -0.000000
vn -1.000000 0.000000 -0.000000
vn -1.000000 0.000000 -0.000000
vn -1.000000 0.000000 -0.000000
vn -1.000000 0.000000 -0.000000
vn -1.000000 0.000000 -0.000000
vn -1.000000 0.000000 -0.000000
vn -1.000000 0.000000 -0.000000
vn 1.000000 0.000000 -0.000000
vn 1.000000 0.000000 -0.000000
vn 1.000000 0.000000 -0.000000
vn 1.000000 0.000000 -0.000000
vn 0.000000 0.117661 0.993054
vn 0.000000 0.117661 0.993054
vn 0.000000 0.117661 0.993054
vn 0.000000 0.117661 0.993054
vn 0.000000 0.000000 1.000000
vn 0.000000 0.000000 1.000000
vn 0.000000 0.000000 1.000000
vn 0.000000 0.000000 1.000000
vn -0.000000 0.103405 0.994639
vn -0.000000 0.103405 0.994639
vn -0.000000 0.103405 0.994639
vn -0.000000 0.103405 0.994639
vn 0.000000 0.103405 0.994639
vn 0.000000 0.103405 0.994639
vn 0.000000 0.103405 0.994639
vn 0.000000 0.103405 0.994639
vn -0.589643 0.088769 0.802771
vn -0.589643 0.088769 0.802771
vn -0.589643 0.088769 0.802771
vn -0.589643 0.088769 0.802771
vn 0.000000 -0.714758 0.699372
vn 0.000000 -0.714758 0.699372
vn 0.000000 -0.714758 0.699372
vn 0.000000 -0.714758 0.699372
vn 1.000000 0.000000 -0.000000
vn 1.000000 0.000000 -0.000000
vn 1.000000 0.000000 -0.000000
vn 1.000000 0.000000 -0.000000
vn 0.000000 1.000000 -0.000000
vn 0.000000 1.000000 -0.000000
vn 0.000000 1.000000 -0.000000
vn 0.000000 1.000000 -0.000000
vn -0.000224 0.588812 0.808270
vn -0.000224 0.588812 0.808270
vn -0.000224 0.588812 0.808270
vn -0.000224 0.588812 0.808270
vn 1.000000 0.000000 -0.000000
vn 1.000000 0.000000 -0.000000
vn 1.000000 0.000000 -0.000000
vn 1.000000 0.000000 -0.000000
vn 0.000000 0.000000 1.000000
vn 0.000000 0.000000 1.000000
vn 0.000000 0.000000 1.000000
vn 0.000000 0.000000 1.000000
vn 0.000000 0.103405 0.994639
vn 0.000000 0.103405 0.994639
vn 0.000000 0.103405 0.994639
vn 0.000000 0.103405 0.994639
vn 0.000000 0.808505 0.588490
vn 0.000000 0.808505 0.588490
vn 0.000000 0.808505 0.588490
vn 0.000000 0.808505 0.588490
vn 0.000000 -0.466706 0.884412
vn 0.000000 -0.466706 0.884412
vn 0.000000 -0.466706 0.884412
vn 0.000000 -0.466706 0.884412
vn -0.000759 1.000000 -0.000000
vn -0.000759 1.000000 -0.000000
vn -0.000759 1.000000 -0.000000
vn -0.000759 1.000000 -0.000000
vn 1.000000 0.000000 -0.000000
vn 1.000000 0.000000 -0.000000
vn 1.000000 0.000000 -0.000000
vn 1.000000 0.000000 -0.000000
vn 1.000000 0.000000 -0.000000
vn 1.000000 0.000000 -0.000000
vn 1.000000 0.000000 -0.000000
vn 1.000000 0.000000 -0.000000
# 288 vertex normals

vt 0.525642 0.008485 0.000000
vt 0.595429 0.008486 0.000000
vt 0.595431 0.193941 0.000000
vt 0.510319 0.209815 0.000000
vt 0.441319 0.270616 0.000000
vt 0.441158 0.403728 0.000000
vt 0.004505 0.403073 0.000000
vt 0.004472 0.270925 0.000000
vt 0.510972 0.489897 0.000000
vt 0.511418 0.597161 0.000000
vt 0.006687 0.598831 0.000000
vt 0.006245 0.492481 0.000000
vt 0.510848 0.464429 0.000000
vt 0.464749 0.419303 0.000000
vt 0.464364 0.255489 0.000000
vt 0.006085 0.467932 0.000000
vt 0.005336 0.422326 0.000000
vt 0.510340 0.193936 0.000000
vt 0.510347 0.008484 0.000000
vt 0.005588 0.208621 0.000000
vt 0.005601 0.193929 0.000000
vt 0.511485 0.626375 0.000000
vt 0.006750 0.626828 0.000000
vt 0.005610 0.008474 0.000000
vt 0.005110 0.253507 0.000000
vt 0.006749 0.665020 0.000000
vt 0.511483 0.665020 0.000000
vt 0.595436 0.445882 0.000000
vt 0.525645 0.193940 0.000000
vt 0.540176 0.468003 0.000000
vt 0.540176 0.574812 0.000000
vt 0.551846 0.445883 0.000000
vt 0.557019 0.598125 0.000000
vt 0.595438 0.598125 0.000000
vt 0.525642 0.008485 0.000000
vt 0.595429 0.008486 0.000000
vt 0.595431 0.193941 0.000000
vt 0.525645 0.193940 0.000000
vt 0.441319 0.270616 0.000000
vt 0.441158 0.403728 0.000000
vt 0.004505 0.403073 0.000000
vt 0.004472 0.270925 0.000000
vt 0.510972 0.489897 0.000000
vt 0.511418 0.597161 0.000000
vt 0.006687 0.598831 0.000000
vt 0.006245 0.492481 0.000000
vt 0.510319 0.209815 0.000000
vt 0.510848 0.464429 0.000000
vt 0.464749 0.419303 0.000000
vt 0.464364 0.255489 0.000000
vt 0.006085 0.467932 0.000000
vt 0.005336 0.422326 0.000000
vt 0.510340 0.193936 0.000000
vt 0.510347 0.008484 0.000000
vt 0.005588 0.208621 0.000000
vt 0.005601 0.193929 0.000000
vt 0.511485 0.626375 0.000000
vt 0.006750 0.626828 0.000000
vt 0.551846 0.445883 0.000000
vt 0.557019 0.598125 0.000000
vt 0.540176 0.574812 0.000000
vt 0.540176 0.468003 0.000000
vt 0.005610 0.008474 0.000000
vt 0.005110 0.253507 0.000000
vt 0.006749 0.665020 0.000000
vt 0.511483 0.665020 0.000000
vt 0.595436 0.445882 0.000000
vt 0.595438 0.598125 0.000000
vt 0.525642 0.008485 0.000000
vt 0.595429 0.008486 0.000000
vt 0.595431 0.193941 0.000000
vt 0.525645 0.193940 0.000000
vt 0.441319 0.270616 0.000000
vt 0.441158 0.403728 0.000000
vt 0.004505 0.403073 0.000000
vt 0.004472 0.270925 0.000000
vt 0.510972 0.489897 0.000000
vt 0.511418 0.597161 0.000000
vt 0.006687 0.598831 0.000000
vt 0.006245 0.492481 0.000000
vt 0.510319 0.209815 0.000000
vt 0.510848 0.464429 0.000000
vt 0.464749 0.419303 0.000000
vt 0.464364 0.255489 0.000000
vt 0.006085 0.467932 0.000000
vt 0.005336 0.422326 0.000000
vt 0.510340 0.193936 0.000000
vt 0.510347 0.008484 0.000000
vt 0.005588 0.208621 0.000000
vt 0.005601 0.193929 0.000000
vt 0.511485 0.626375 0.000000
vt 0.006750 0.626828 0.000000
vt 0.551846 0.445883 0.000000
vt 0.557019 0.598125 0.000000
vt 0.540176 0.574812 0.000000
vt 0.540176 0.468003 0.000000
vt 0.005610 0.008474 0.000000
vt 0.005110 0.253507 0.000000
vt 0.006749 0.665020 0.000000
vt 0.511483 0.665020 0.000000
vt 0.595436 0.445882 0.000000
vt 0.595438 0.598125 0.000000
vt 0.525642 0.008485 0.000000
vt 0.525645 0.193940 0.000000
vt 0.595431 0.193941 0.000000
vt 0.595429 0.008486 0.000000
vt 0.441319 0.270616 0.000000
vt 0.004472 0.270925 0.000000
vt 0.004505 0.403073 0.000000
vt 0.441158 0.403728 0.000000
vt 0.510972 0.489897 0.000000
vt 0.006245 0.492481 0.000000
vt 0.006687 0.598831 0.000000
vt 0.511418 0.597161 0.000000
vt 0.510319 0.209815 0.000000
vt 0.464364 0.255489 0.000000
vt 0.464749 0.419303 0.000000
vt 0.510848 0.464429 0.000000
vt 0.005336 0.422326 0.000000
vt 0.006085 0.467932 0.000000
vt 0.510347 0.008484 0.000000
vt 0.510340 0.193936 0.000000
vt 0.005601 0.193929 0.000000
vt 0.005588 0.208621 0.000000
vt 0.511485 0.626375 0.000000
vt 0.006750 0.626828 0.000000
vt 0.551846 0.445883 0.000000
vt 0.540176 0.468003 0.000000
vt 0.540176 0.574812 0.000000
vt 0.557019 0.598125 0.000000
vt 0.005610 0.008474 0.000000
vt 0.005110 0.253507 0.000000
vt 0.006749 0.665020 0.000000
vt 0.511483 0.665020 0.000000
vt 0.595436 0.445882 0.000000
vt 0.595438 0.598125 0.000000
# 136 texture coords

g wall
s off
f 42/2/1 19/3/2 3/29/3 1/1/4 
f 8/6/5 15/7/6 16/8/7 7/5/8 
f 11/10/9 17/11/10 29/12/11 12/9/12 
f 3/4/13 4/13/14 6/14/15 5/15/16 
f 33/16/17 14/17/18 6/14/19 4/13/20 
f 5/15/21 6/14/22 8/6/23 7/5/24 
f 14/17/25 15/7/26 8/6/27 6/14/28 
f 1/1/29 3/29/30 10/18/31 9/19/32 
f 18/20/33 36/21/34 10/18/35 3/4/36 
f 13/23/37 17/11/38 11/10/39 2/22/40 
f 4/32/41 2/33/42 11/31/43 12/30/44 
f 9/19/45 10/18/46 36/21/47 38/24/48 
f 18/20/49 3/4/50 5/15/51 39/25/52 
f 39/25/53 5/15/54 7/5/55 16/8/56 
f 4/13/57 12/9/58 29/12/59 33/16/60 
f 13/23/61 2/22/62 20/27/63 65/26/64 
f 4/32/65 3/29/66 19/3/67 66/28/68 
f 2/33/69 4/32/70 66/28/71 20/34/72 
f 22/36/73 21/35/74 24/38/75 23/37/76 
f 26/40/77 25/39/78 16/42/79 15/41/80 
f 28/44/81 27/43/82 29/46/83 17/45/84 
f 24/47/85 32/50/86 31/49/87 30/48/88 
f 33/51/89 30/48/90 31/49/91 14/52/92 
f 32/50/93 25/39/94 26/40/95 31/49/96 
f 14/52/97 31/49/98 26/40/99 15/41/100 
f 21/35/101 35/54/102 34/53/103 24/38/104 
f 18/55/105 24/47/106 34/53/107 36/56/108 
f 13/58/109 37/57/110 28/44/111 17/45/112 
f 30/59/113 27/62/114 28/61/115 37/60/116 
f 35/54/117 38/63/118 36/56/119 34/53/120 
f 18/55/121 39/64/122 32/50/123 24/47/124 
f 39/64/125 16/42/126 25/39/127 32/50/128 
f 30/48/129 33/51/130 29/46/131 27/43/132 
f 13/58/133 65/65/134 40/66/135 37/57/136 
f 30/59/137 79/67/138 23/37/139 24/38/140 
f 37/60/141 40/68/142 79/67/143 30/59/144 
f 42/70/145 41/69/146 43/72/147 19/71/148 
f 45/74/149 44/73/150 47/76/151 46/75/152 
f 49/78/153 48/77/154 51/80/155 50/79/156 
f 43/81/157 54/84/158 53/83/159 52/82/160 
f 55/85/161 52/82/162 53/83/163 56/86/164 
f 54/84/165 44/73/166 45/74/167 53/83/168 
f 56/86/169 53/83/170 45/74/171 46/75/172 
f 41/69/173 58/88/174 57/87/175 43/72/176 
f 59/89/177 43/81/178 57/87/179 60/90/180 
f 62/92/181 61/91/182 49/78/183 50/79/184 
f 52/93/185 48/96/186 49/95/187 61/94/188 
f 58/88/189 63/97/190 60/90/191 57/87/192 
f 59/89/193 64/98/194 54/84/195 43/81/196 
f 64/98/197 47/76/198 44/73/199 54/84/200 
f 52/82/201 55/85/202 51/80/203 48/77/204 
f 62/92/205 65/99/206 20/100/207 61/91/208 
f 52/93/209 66/101/210 19/71/211 43/72/212 
f 61/94/213 20/102/214 66/101/215 52/93/216 
f 22/106/217 23/105/218 68/104/219 67/103/220 
f 70/110/221 46/109/222 47/108/223 69/107/224 
f 72/114/225 50/113/226 51/112/227 71/111/228 
f 68/115/229 75/118/230 74/117/231 73/116/232 
f 55/120/233 56/119/234 74/117/235 75/118/236 
f 73/116/237 74/117/238 70/110/239 69/107/240 
f 56/119/241 46/109/242 70/110/243 74/117/244 
f 67/103/245 68/104/246 77/122/247 76/121/248 
f 59/124/249 60/123/250 77/122/251 68/115/252 
f 62/126/253 50/113/254 72/114/255 78/125/256 
f 75/127/257 78/130/258 72/129/259 71/128/260 
f 76/121/261 77/122/262 60/123/263 63/131/264 
f 59/124/265 68/115/266 73/116/267 64/132/268 
f 64/132/269 73/116/270 69/107/271 47/108/272 
f 75/118/273 71/111/274 51/112/275 55/120/276 
f 62/126/277 78/125/278 40/134/279 65/133/280 
f 75/127/281 68/104/282 23/105/283 79/135/284 
f 78/130/285 75/127/286 79/135/287 40/136/288 
# 72 polygons

