# 3ds Max Wavefront OBJ Exporter v0.97b - (c)2007 guruware
# File Created: 24.04.2016 00:16:55

#
# object wall_CornerPiece
#

v  -14.147676 -10.096917 -14.147676
v  -14.147676 25.633320 -14.147676
v  -11.401837 25.308723 -9.036942
v  -11.401837 31.129049 -9.036942
v  -9.036942 25.308723 -11.401837
v  -9.036942 31.129049 -11.401837
v  -10.431583 33.745785 -8.066687
v  -8.066687 33.745785 -10.431583
v  -10.431583 90.309090 -8.066687
v  -8.066687 90.309090 -10.431583
v  -6.465006 95.895905 -4.100110
v  -4.100110 95.895905 -6.465006
v  -0.043243 25.633320 -14.147676
v  14.061189 -10.096917 -14.147676
v  14.061189 25.633320 -14.147676
v  -0.043243 -10.096917 -14.147676
v  8.950455 25.308723 -11.401837
v  8.950455 31.129049 -11.401837
v  -0.043243 31.129049 -11.401837
v  -0.043243 25.308723 -11.401837
v  7.980200 33.745785 -10.431583
v  -0.043243 33.745785 -10.431583
v  7.980200 90.309090 -10.431583
v  -0.043243 90.309105 -10.431583
v  4.013623 95.895905 -6.465006
v  -0.043243 95.895905 -6.465006
v  11.315351 25.308723 -9.036942
v  11.315351 31.129049 -9.036942
v  10.345097 33.745785 -8.066687
v  10.345097 90.309090 -8.066687
v  6.378519 95.895905 -4.100110
v  -14.147676 -10.096917 14.331483
v  -14.147676 25.633320 14.331483
v  -0.043243 25.633320 14.331483
v  -0.043243 -10.096917 14.331483
v  -9.036942 25.308723 11.585645
v  -9.036942 31.129049 11.585645
v  -0.043243 31.129049 11.585645
v  -0.043243 25.308723 11.585645
v  -8.066687 33.745785 10.615391
v  -0.043243 33.745785 10.615391
v  -8.066687 90.309090 10.615391
v  -0.043243 90.309105 10.615391
v  -4.100110 95.895905 6.648813
v  -0.043243 95.895905 6.648814
v  -11.401837 25.308723 9.220749
v  -11.401837 31.129049 9.220749
v  -10.431583 33.745785 8.250494
v  -10.431583 90.309090 8.250494
v  -6.465006 95.895905 4.283917
v  -14.147676 25.633320 0.091904
v  -14.147676 -10.096917 0.091904
v  -11.401837 31.129049 0.091904
v  -11.401837 25.308723 0.091904
v  -10.431583 33.745785 0.091904
v  -10.431583 90.309090 0.091904
v  -6.465006 95.895905 0.091904
v  -0.043243 95.895905 0.091904
v  -0.043243 25.633320 0.091904
v  14.061189 -10.096917 14.331483
v  14.061189 25.633320 14.331483
v  8.950455 25.308723 11.585645
v  8.950455 31.129049 11.585645
v  7.980200 33.745785 10.615391
v  7.980200 90.309090 10.615391
v  4.013623 95.895905 6.648813
v  11.315351 25.308723 9.220749
v  11.315351 31.129049 9.220749
v  10.345097 33.745785 8.250494
v  10.345097 90.309090 8.250494
v  6.378519 95.895905 4.283917
v  14.061189 25.633320 0.091904
v  14.061189 -10.096917 0.091904
v  11.315351 31.129049 0.091904
v  11.315351 25.308723 0.091904
v  10.345097 33.745785 0.091904
v  10.345097 90.309090 0.091904
v  6.378519 95.895905 0.091904
# 78 vertices

vn 0.000000 0.000000 -1.000000
vn 0.000000 0.000000 -1.000000
vn 0.000000 0.000000 -1.000000
vn 0.000000 0.000000 -1.000000
vn 0.000000 0.000000 -1.000000
vn 0.000000 0.000000 -1.000000
vn 0.000000 0.000000 -1.000000
vn 0.000000 0.000000 -1.000000
vn 0.000000 0.428364 -0.903606
vn 0.000000 0.428364 -0.903606
vn 0.000000 0.428364 -0.903606
vn 0.000000 0.428364 -0.903606
vn 0.000000 0.000000 -1.000000
vn 0.000000 0.000000 -1.000000
vn 0.000000 0.000000 -1.000000
vn 0.000000 0.000000 -1.000000
vn -0.000000 0.672124 -0.740439
vn -0.000000 0.672124 -0.740439
vn -0.000000 0.672124 -0.740439
vn -0.000000 0.672124 -0.740439
vn -0.707107 0.000000 -0.707107
vn -0.707107 0.000000 -0.707107
vn -0.707107 0.000000 -0.707107
vn -0.707107 0.000000 -0.707107
vn -0.587328 0.556858 -0.587328
vn -0.587328 0.556858 -0.587328
vn -0.587328 0.556858 -0.587328
vn -0.587328 0.556858 -0.587328
vn -0.707107 0.000000 -0.707107
vn -0.707107 0.000000 -0.707107
vn -0.707107 0.000000 -0.707107
vn -0.707107 0.000000 -0.707107
vn -0.434538 0.788893 -0.434539
vn -0.434538 0.788893 -0.434539
vn -0.434538 0.788893 -0.434539
vn -0.434538 0.788893 -0.434539
vn -1.000000 0.000000 -0.000000
vn -1.000000 0.000000 -0.000000
vn -1.000000 0.000000 -0.000000
vn -1.000000 0.000000 -0.000000
vn -1.000000 0.000000 -0.000000
vn -1.000000 0.000000 -0.000000
vn -1.000000 0.000000 -0.000000
vn -1.000000 0.000000 -0.000000
vn -0.903606 0.428364 -0.000000
vn -0.903606 0.428364 -0.000000
vn -0.903606 0.428364 -0.000000
vn -0.903606 0.428364 -0.000000
vn -1.000000 0.000000 -0.000000
vn -1.000000 0.000000 -0.000000
vn -1.000000 0.000000 -0.000000
vn -1.000000 0.000000 -0.000000
vn -0.740439 0.672124 -0.000000
vn -0.740439 0.672124 -0.000000
vn -0.740439 0.672124 -0.000000
vn -0.740439 0.672124 -0.000000
vn 0.000000 1.000000 -0.000000
vn 0.000000 1.000000 -0.000000
vn 0.000000 1.000000 -0.000000
vn 0.000000 1.000000 -0.000000
vn 0.000000 1.000000 -0.000000
vn 0.000000 1.000000 -0.000000
vn 0.000000 1.000000 -0.000000
vn 0.000000 1.000000 -0.000000
vn 0.000000 1.000000 -0.000000
vn 0.000000 1.000000 -0.000000
vn 0.000000 1.000000 -0.000000
vn 0.000000 1.000000 -0.000000
vn 0.000000 1.000000 -0.000000
vn 0.000000 0.000000 -1.000000
vn 0.000000 0.000000 -1.000000
vn 0.000000 0.000000 -1.000000
vn 0.000000 0.000000 -1.000000
vn 0.000000 0.000000 -1.000000
vn 0.000000 0.000000 -1.000000
vn 0.000000 0.000000 -1.000000
vn 0.000000 0.000000 -1.000000
vn 0.000000 0.428364 -0.903606
vn 0.000000 0.428364 -0.903606
vn 0.000000 0.428364 -0.903606
vn 0.000000 0.428364 -0.903606
vn 0.000000 0.000000 -1.000000
vn 0.000000 0.000000 -1.000000
vn 0.000000 0.000000 -1.000000
vn 0.000000 0.000000 -1.000000
vn 0.000000 0.672124 -0.740438
vn 0.000000 0.672124 -0.740438
vn 0.000000 0.672124 -0.740438
vn 0.000000 0.672124 -0.740438
vn 0.707107 0.000000 -0.707107
vn 0.707107 0.000000 -0.707107
vn 0.707107 0.000000 -0.707107
vn 0.707107 0.000000 -0.707107
vn 0.587328 0.556858 -0.587328
vn 0.587328 0.556858 -0.587328
vn 0.587328 0.556858 -0.587328
vn 0.587328 0.556858 -0.587328
vn 0.707107 0.000000 -0.707107
vn 0.707107 0.000000 -0.707107
vn 0.707107 0.000000 -0.707107
vn 0.707107 0.000000 -0.707107
vn 0.434538 0.788893 -0.434539
vn 0.434538 0.788893 -0.434539
vn 0.434538 0.788893 -0.434539
vn 0.434538 0.788893 -0.434539
vn 1.000000 0.000000 -0.000000
vn 1.000000 0.000000 -0.000000
vn 1.000000 0.000000 -0.000000
vn 1.000000 0.000000 -0.000000
vn 1.000000 0.000000 -0.000000
vn 1.000000 0.000000 -0.000000
vn 1.000000 0.000000 -0.000000
vn 1.000000 0.000000 -0.000000
vn 0.903606 0.428364 -0.000000
vn 0.903606 0.428364 -0.000000
vn 0.903606 0.428364 -0.000000
vn 0.903606 0.428364 -0.000000
vn 1.000000 0.000000 -0.000000
vn 1.000000 0.000000 -0.000000
vn 1.000000 0.000000 -0.000000
vn 1.000000 0.000000 -0.000000
vn 0.740439 0.672124 -0.000000
vn 0.740439 0.672124 -0.000000
vn 0.740439 0.672124 -0.000000
vn 0.740439 0.672124 -0.000000
vn 0.000000 1.000000 -0.000000
vn 0.000000 1.000000 -0.000000
vn 0.000000 1.000000 -0.000000
vn 0.000000 1.000000 -0.000000
vn 0.000000 1.000000 -0.000000
vn 0.000000 1.000000 -0.000000
vn 0.000000 1.000000 -0.000000
vn 0.000000 1.000000 -0.000000
vn 0.000000 1.000000 -0.000000
vn 0.000000 1.000000 -0.000000
vn 0.000000 1.000000 -0.000000
vn 0.000000 1.000000 -0.000000
vn 0.000000 1.000000 -0.000000
vn 0.000000 0.000000 1.000000
vn 0.000000 0.000000 1.000000
vn 0.000000 0.000000 1.000000
vn 0.000000 0.000000 1.000000
vn 0.000000 0.000000 1.000000
vn 0.000000 0.000000 1.000000
vn 0.000000 0.000000 1.000000
vn 0.000000 0.000000 1.000000
vn 0.000000 0.428364 0.903606
vn 0.000000 0.428364 0.903606
vn 0.000000 0.428364 0.903606
vn 0.000000 0.428364 0.903606
vn 0.000000 0.000000 1.000000
vn 0.000000 0.000000 1.000000
vn 0.000000 0.000000 1.000000
vn 0.000000 0.000000 1.000000
vn -0.000000 0.672124 0.740438
vn -0.000000 0.672124 0.740438
vn -0.000000 0.672124 0.740438
vn -0.000000 0.672124 0.740438
vn -0.707107 0.000000 0.707107
vn -0.707107 0.000000 0.707107
vn -0.707107 0.000000 0.707107
vn -0.707107 0.000000 0.707107
vn -0.587328 0.556858 0.587328
vn -0.587328 0.556858 0.587328
vn -0.587328 0.556858 0.587328
vn -0.587328 0.556858 0.587328
vn -0.707107 0.000000 0.707107
vn -0.707107 0.000000 0.707107
vn -0.707107 0.000000 0.707107
vn -0.707107 0.000000 0.707107
vn -0.434538 0.788893 0.434539
vn -0.434538 0.788893 0.434539
vn -0.434538 0.788893 0.434539
vn -0.434538 0.788893 0.434539
vn -1.000000 0.000000 -0.000000
vn -1.000000 0.000000 -0.000000
vn -1.000000 0.000000 -0.000000
vn -1.000000 0.000000 -0.000000
vn -1.000000 0.000000 -0.000000
vn -1.000000 0.000000 -0.000000
vn -1.000000 0.000000 -0.000000
vn -1.000000 0.000000 -0.000000
vn -0.903606 0.428364 -0.000000
vn -0.903606 0.428364 -0.000000
vn -0.903606 0.428364 -0.000000
vn -0.903606 0.428364 -0.000000
vn -1.000000 0.000000 -0.000000
vn -1.000000 0.000000 -0.000000
vn -1.000000 0.000000 -0.000000
vn -1.000000 0.000000 -0.000000
vn -0.740439 0.672124 -0.000000
vn -0.740439 0.672124 -0.000000
vn -0.740439 0.672124 -0.000000
vn -0.740439 0.672124 -0.000000
vn 0.000000 1.000000 -0.000000
vn 0.000000 1.000000 -0.000000
vn 0.000000 1.000000 -0.000000
vn 0.000000 1.000000 -0.000000
vn 0.000000 1.000000 -0.000000
vn 0.000000 1.000000 -0.000000
vn 0.000000 1.000000 -0.000000
vn 0.000000 1.000000 -0.000000
vn 0.000000 1.000000 -0.000000
vn 0.000000 1.000000 -0.000000
vn 0.000000 1.000000 -0.000000
vn 0.000000 1.000000 -0.000000
vn 0.000000 1.000000 -0.000000
vn 0.000000 0.000000 1.000000
vn 0.000000 0.000000 1.000000
vn 0.000000 0.000000 1.000000
vn 0.000000 0.000000 1.000000
vn 0.000000 0.000000 1.000000
vn 0.000000 0.000000 1.000000
vn 0.000000 0.000000 1.000000
vn 0.000000 0.000000 1.000000
vn 0.000000 0.428364 0.903606
vn 0.000000 0.428364 0.903606
vn 0.000000 0.428364 0.903606
vn 0.000000 0.428364 0.903606
vn 0.000000 0.000000 1.000000
vn 0.000000 0.000000 1.000000
vn 0.000000 0.000000 1.000000
vn 0.000000 0.000000 1.000000
vn 0.000000 0.672124 0.740439
vn 0.000000 0.672124 0.740439
vn 0.000000 0.672124 0.740439
vn 0.000000 0.672124 0.740439
vn 0.707107 0.000000 0.707107
vn 0.707107 0.000000 0.707107
vn 0.707107 0.000000 0.707107
vn 0.707107 0.000000 0.707107
vn 0.587328 0.556858 0.587328
vn 0.587328 0.556858 0.587328
vn 0.587328 0.556858 0.587328
vn 0.587328 0.556858 0.587328
vn 0.707107 0.000000 0.707107
vn 0.707107 0.000000 0.707107
vn 0.707107 0.000000 0.707107
vn 0.707107 0.000000 0.707107
vn 0.434538 0.788893 0.434539
vn 0.434538 0.788893 0.434539
vn 0.434538 0.788893 0.434539
vn 0.434538 0.788893 0.434539
vn 1.000000 0.000000 -0.000000
vn 1.000000 0.000000 -0.000000
vn 1.000000 0.000000 -0.000000
vn 1.000000 0.000000 -0.000000
vn 1.000000 0.000000 -0.000000
vn 1.000000 0.000000 -0.000000
vn 1.000000 0.000000 -0.000000
vn 1.000000 0.000000 -0.000000
vn 0.903606 0.428364 -0.000000
vn 0.903606 0.428364 -0.000000
vn 0.903606 0.428364 -0.000000
vn 0.903606 0.428364 -0.000000
vn 1.000000 0.000000 -0.000000
vn 1.000000 0.000000 -0.000000
vn 1.000000 0.000000 -0.000000
vn 1.000000 0.000000 -0.000000
vn 0.740439 0.672124 -0.000000
vn 0.740439 0.672124 -0.000000
vn 0.740439 0.672124 -0.000000
vn 0.740439 0.672124 -0.000000
vn 0.000000 1.000000 -0.000000
vn 0.000000 1.000000 -0.000000
vn 0.000000 1.000000 -0.000000
vn 0.000000 1.000000 -0.000000
vn 0.000000 1.000000 -0.000000
vn 0.000000 1.000000 -0.000000
vn 0.000000 1.000000 -0.000000
vn 0.000000 1.000000 -0.000000
vn 0.000000 1.000000 -0.000000
vn 0.000000 1.000000 -0.000000
vn 0.000000 1.000000 -0.000000
vn 0.000000 1.000000 -0.000000
vn 0.000000 1.000000 -0.000000
# 276 vertex normals

vt 0.654086 0.676496 0.000000
vt 0.654086 0.877019 0.000000
vt 0.755599 0.877019 0.000000
vt 0.755599 0.676496 0.000000
vt 0.922570 0.976158 0.000000
vt 0.921450 0.943941 0.000000
vt 0.923923 0.927028 0.000000
vt 0.925337 0.611398 0.000000
vt 0.960705 0.574254 0.000000
vt 0.899781 0.975946 0.000000
vt 0.900188 0.943525 0.000000
vt 0.897855 0.926606 0.000000
vt 0.899040 0.611994 0.000000
vt 0.945817 0.558346 0.000000
vt 0.837198 0.943256 0.000000
vt 0.836181 0.975797 0.000000
vt 0.839341 0.926805 0.000000
vt 0.840468 0.612073 0.000000
vt 0.945018 0.529856 0.000000
vt 0.908344 0.591994 0.000000
vt 0.902483 0.534061 0.000000
vt 0.654086 0.978532 0.000000
vt 0.552884 0.676496 0.000000
vt 0.552884 0.877019 0.000000
vt 0.986130 0.973728 0.000000
vt 0.984104 0.941587 0.000000
vt 0.982077 0.926594 0.000000
vt 0.982992 0.615341 0.000000
vt 0.988655 0.576189 0.000000
vt 0.991907 0.530255 0.000000
vt 0.552884 0.978532 0.000000
vt 0.991887 0.530627 0.000000
vt 0.654086 0.676496 0.000000
vt 0.654086 0.877019 0.000000
vt 0.552884 0.877019 0.000000
vt 0.552884 0.676496 0.000000
vt 0.922570 0.976158 0.000000
vt 0.921450 0.943941 0.000000
vt 0.984104 0.941587 0.000000
vt 0.986130 0.973728 0.000000
vt 0.923923 0.927028 0.000000
vt 0.982077 0.926594 0.000000
vt 0.925337 0.611398 0.000000
vt 0.982992 0.615341 0.000000
vt 0.960705 0.574254 0.000000
vt 0.988655 0.576189 0.000000
vt 0.899781 0.975946 0.000000
vt 0.900188 0.943525 0.000000
vt 0.897855 0.926606 0.000000
vt 0.899040 0.611994 0.000000
vt 0.908344 0.591994 0.000000
vt 0.945817 0.558346 0.000000
vt 0.755599 0.877019 0.000000
vt 0.755599 0.676496 0.000000
vt 0.837198 0.943256 0.000000
vt 0.836181 0.975797 0.000000
vt 0.839341 0.926805 0.000000
vt 0.840468 0.612073 0.000000
vt 0.945018 0.529856 0.000000
vt 0.902483 0.534061 0.000000
vt 0.991900 0.530379 0.000000
vt 0.654086 0.978532 0.000000
vt 0.552884 0.978532 0.000000
vt 0.654086 0.676496 0.000000
vt 0.654086 0.877019 0.000000
vt 0.552884 0.877019 0.000000
vt 0.552884 0.676496 0.000000
vt 0.922570 0.976158 0.000000
vt 0.921450 0.943941 0.000000
vt 0.984104 0.941587 0.000000
vt 0.986130 0.973728 0.000000
vt 0.923923 0.927028 0.000000
vt 0.982077 0.926594 0.000000
vt 0.925337 0.611398 0.000000
vt 0.982992 0.615341 0.000000
vt 0.960705 0.574254 0.000000
vt 0.988655 0.576189 0.000000
vt 0.899781 0.975946 0.000000
vt 0.900188 0.943525 0.000000
vt 0.897855 0.926606 0.000000
vt 0.899040 0.611994 0.000000
vt 0.908344 0.591994 0.000000
vt 0.945817 0.558346 0.000000
vt 0.755599 0.877019 0.000000
vt 0.755599 0.676496 0.000000
vt 0.837198 0.943256 0.000000
vt 0.836181 0.975797 0.000000
vt 0.839341 0.926805 0.000000
vt 0.840468 0.612073 0.000000
vt 0.945018 0.529856 0.000000
vt 0.902483 0.534061 0.000000
vt 0.991900 0.530379 0.000000
vt 0.654086 0.978532 0.000000
vt 0.552884 0.978532 0.000000
vt 0.654086 0.676496 0.000000
vt 0.552884 0.676496 0.000000
vt 0.552884 0.877019 0.000000
vt 0.654086 0.877019 0.000000
vt 0.922570 0.976158 0.000000
vt 0.986130 0.973728 0.000000
vt 0.984104 0.941587 0.000000
vt 0.921450 0.943941 0.000000
vt 0.982077 0.926594 0.000000
vt 0.923923 0.927028 0.000000
vt 0.982992 0.615341 0.000000
vt 0.925337 0.611398 0.000000
vt 0.988655 0.576189 0.000000
vt 0.960705 0.574254 0.000000
vt 0.899781 0.975946 0.000000
vt 0.900188 0.943525 0.000000
vt 0.897855 0.926606 0.000000
vt 0.899040 0.611994 0.000000
vt 0.908344 0.591994 0.000000
vt 0.945817 0.558346 0.000000
vt 0.755599 0.877019 0.000000
vt 0.755599 0.676496 0.000000
vt 0.837198 0.943256 0.000000
vt 0.836181 0.975797 0.000000
vt 0.839341 0.926805 0.000000
vt 0.840468 0.612073 0.000000
vt 0.945018 0.529856 0.000000
vt 0.902483 0.534061 0.000000
vt 0.991887 0.530627 0.000000
vt 0.991907 0.530255 0.000000
vt 0.552884 0.978532 0.000000
vt 0.654086 0.978532 0.000000
# 126 texture coords

g wall_CornerPiece
s off
f 2/2/1 13/24/2 16/23/3 1/1/4 
f 6/6/5 19/26/6 20/25/7 5/5/8 
f 8/7/9 22/27/10 19/26/11 6/6/12 
f 10/8/13 24/28/14 22/27/15 8/7/16 
f 12/9/17 26/29/18 24/28/19 10/8/20 
f 3/10/21 4/11/22 6/6/23 5/5/24 
f 4/11/25 7/12/26 8/7/27 6/6/28 
f 7/12/29 9/13/30 10/8/31 8/7/32 
f 9/20/33 11/14/34 12/9/35 10/8/36 
f 2/2/37 1/1/38 52/4/39 51/3/40 
f 4/11/41 3/10/42 54/16/43 53/15/44 
f 7/12/45 4/11/46 53/15/47 55/17/48 
f 9/13/49 7/12/50 55/17/51 56/18/52 
f 11/14/53 9/20/54 56/21/55 57/19/56 
f 12/9/57 11/14/58 58/32/59 
f 11/14/60 57/19/61 58/30/62 
f 2/2/63 51/22/64 59/31/65 13/24/66 
f 26/29/67 12/9/68 58/32/69 
f 15/34/70 14/33/71 16/36/72 13/35/73 
f 18/38/74 17/37/75 20/40/76 19/39/77 
f 21/41/78 18/38/79 19/39/80 22/42/81 
f 23/43/82 21/41/83 22/42/84 24/44/85 
f 25/45/86 23/43/87 24/44/88 26/46/89 
f 27/47/90 17/37/91 18/38/92 28/48/93 
f 28/48/94 18/38/95 21/41/96 29/49/97 
f 29/49/98 21/41/99 23/43/100 30/50/101 
f 30/51/102 23/43/103 25/45/104 31/52/105 
f 15/34/106 72/53/107 73/54/108 14/33/109 
f 28/48/110 74/55/111 75/56/112 27/47/113 
f 29/49/114 76/57/115 74/55/116 28/48/117 
f 30/50/118 77/58/119 76/57/120 29/49/121 
f 31/52/122 78/59/123 77/60/124 30/51/125 
f 25/45/126 58/61/127 31/52/128 
f 31/52/129 58/61/130 78/59/131 
f 15/34/132 13/35/133 59/63/134 72/62/135 
f 26/46/136 58/61/137 25/45/138 
f 33/65/139 32/64/140 35/67/141 34/66/142 
f 37/69/143 36/68/144 39/71/145 38/70/146 
f 40/72/147 37/69/148 38/70/149 41/73/150 
f 42/74/151 40/72/152 41/73/153 43/75/154 
f 44/76/155 42/74/156 43/75/157 45/77/158 
f 46/78/159 36/68/160 37/69/161 47/79/162 
f 47/79/163 37/69/164 40/72/165 48/80/166 
f 48/80/167 40/72/168 42/74/169 49/81/170 
f 49/82/171 42/74/172 44/76/173 50/83/174 
f 33/65/175 51/84/176 52/85/177 32/64/178 
f 47/79/179 53/86/180 54/87/181 46/78/182 
f 48/80/183 55/88/184 53/86/185 47/79/186 
f 49/81/187 56/89/188 55/88/189 48/80/190 
f 50/83/191 57/90/192 56/91/193 49/82/194 
f 44/76/195 58/92/196 50/83/197 
f 50/83/198 58/92/199 57/90/200 
f 33/65/201 34/66/202 59/94/203 51/93/204 
f 45/77/205 58/92/206 44/76/207 
f 61/98/208 34/97/209 35/96/210 60/95/211 
f 63/102/212 38/101/213 39/100/214 62/99/215 
f 64/104/216 41/103/217 38/101/218 63/102/219 
f 65/106/220 43/105/221 41/103/222 64/104/223 
f 66/108/224 45/107/225 43/105/226 65/106/227 
f 67/109/228 68/110/229 63/102/230 62/99/231 
f 68/110/232 69/111/233 64/104/234 63/102/235 
f 69/111/236 70/112/237 65/106/238 64/104/239 
f 70/113/240 71/114/241 66/108/242 65/106/243 
f 61/98/244 60/95/245 73/116/246 72/115/247 
f 68/110/248 67/109/249 75/118/250 74/117/251 
f 69/111/252 68/110/253 74/117/254 76/119/255 
f 70/112/256 69/111/257 76/119/258 77/120/259 
f 71/114/260 70/113/261 77/122/262 78/121/263 
f 66/108/264 71/114/265 58/123/266 
f 71/114/267 78/121/268 58/124/269 
f 61/98/270 72/126/271 59/125/272 34/97/273 
f 45/107/274 66/108/275 58/123/276 
# 60 polygons - 12 triangles

